<?xml version="1.0" encoding="UTF-8" standalone="no"?>
<!-- Created with Inkscape (http://www.inkscape.org/) -->

<svg
   width="29.468998mm"
   height="29.469004mm"
   viewBox="0 0 29.468998 29.469004"
   version="1.1"
   id="svg1"
   xml:space="preserve"
   inkscape:version="1.3.2 (091e20e, 2023-11-25, custom)"
   sodipodi:docname="pablo.svg"
   xmlns:inkscape="http://www.inkscape.org/namespaces/inkscape"
   xmlns:sodipodi="http://sodipodi.sourceforge.net/DTD/sodipodi-0.dtd"
   xmlns="http://www.w3.org/2000/svg"
   xmlns:svg="http://www.w3.org/2000/svg"><sodipodi:namedview
     id="namedview1"
     pagecolor="#505050"
     bordercolor="#eeeeee"
     borderopacity="1"
     inkscape:showpageshadow="0"
     inkscape:pageopacity="0"
     inkscape:pagecheckerboard="0"
     inkscape:deskcolor="#505050"
     inkscape:document-units="mm"
     inkscape:zoom="2.9255612"
     inkscape:cx="305.41149"
     inkscape:cy="616.46293"
     inkscape:window-width="1920"
     inkscape:window-height="1017"
     inkscape:window-x="1912"
     inkscape:window-y="-8"
     inkscape:window-maximized="1"
     inkscape:current-layer="layer1" /><defs
     id="defs1" /><g
     inkscape:label="Capa 1"
     inkscape:groupmode="layer"
     id="layer1"
     transform="translate(-45.271432,-144.75378)"><circle
       style="fill:#2b2b2b;fill-opacity:1;stroke:#ffffff;stroke-width:0.8;stroke-linecap:round;stroke-dasharray:none;stroke-dashoffset:0;stroke-opacity:1;paint-order:fill markers stroke"
       id="path1"
       cx="60.005932"
       cy="159.48828"
       r="14.3345"
       inkscape:export-filename="path1.png"
       inkscape:export-xdpi="96"
       inkscape:export-ydpi="96" /><path
       style="fill:#2b2b2b;fill-opacity:1;stroke:#ffffff;stroke-width:0.8;stroke-linecap:square;stroke-linejoin:round;stroke-dasharray:none;paint-order:stroke fill markers"
       d="m 55.61967,165.81897 h 8.711797 c -0.544561,-2.7821 -0.640351,-5.36619 -0.354466,-8.31438 l 0.709128,1.90455 c 0.692329,-0.70838 1.329559,-1.49941 2.916639,-1.82007 -1.189,-1.76397 -2.25384,-3.60353 -4.386265,-4.79324 -0.95443,1.65985 -1.590216,2.87564 -3.04601,3.39533 -1.463624,-0.56437 -2.070653,-1.51597 -3.329904,-3.5762 -1.819601,1.52171 -3.407169,3.10448 -4.420181,4.83845 1.014227,0.31738 1.780069,1.24042 2.193132,2.06879 l 1.017436,-2.20444 c 0.671168,2.83374 0.312749,5.66747 -0.01131,8.50121 z"
       id="path2"
       sodipodi:nodetypes="ccccccccccccc" /></g></svg>
